<svg xmlns="http://www.w3.org/2000/svg" width="80" height="24" fill="none"><path fill="#00E2B8" d="m71.94 12.86 3.64-7.3H80l-8.2 18.32h-4.26l2.79-6.26-5.67-12.06h4.36l3.52 7.05-.6.25Zm-12.07 1.55c.6-.59.9-1.34.9-2.23a3.03 3.03 0 0 0-3.17-3.13c-.92 0-1.67.3-2.27.89s-.9 1.34-.9 2.24a3.03 3.03 0 0 0 3.17 3.12c.92 0 1.68-.29 2.27-.89Zm1.74-8.33a6.57 6.57 0 0 1 2.48 2.44c.63 1.07.94 2.28.94 3.66a7 7 0 0 1-.94 3.65 6.57 6.57 0 0 1-2.48 2.44 6.5 6.5 0 0 1-3.22.85c-1.53 0-2.79-.44-3.77-1.32v6.08h-4.27V5.56h3.96v1.3a5.3 5.3 0 0 1 4.08-1.63c1.13 0 2.2.28 3.22.85Zm-18.25 8.33c.6-.59.9-1.34.9-2.23a3.03 3.03 0 0 0-3.17-3.13 3.03 3.03 0 0 0-3.16 3.13 3.03 3.03 0 0 0 3.16 3.12c.92 0 1.68-.29 2.27-.89Zm1.74-8.33a6.55 6.55 0 0 1 2.48 2.44c.62 1.07.94 2.28.94 3.66 0 1.37-.32 2.59-.94 3.65a6.55 6.55 0 0 1-2.48 2.44 6.5 6.5 0 0 1-3.22.85c-1.53 0-2.79-.44-3.77-1.32v6.08h-4.27V5.56h3.96v1.3a5.29 5.29 0 0 1 4.08-1.63c1.13 0 2.2.28 3.22.85Zm-18.68 8.33c.6-.59.9-1.34.9-2.23a3.03 3.03 0 0 0-3.17-3.13A3.03 3.03 0 0 0 21 12.18a3.03 3.03 0 0 0 3.16 3.12c.92 0 1.68-.29 2.27-.89Zm1.03-8.85h3.95v13.23h-3.96v-1.3a5.29 5.29 0 0 1-4.08 1.63 6.5 6.5 0 0 1-3.22-.85 6.51 6.51 0 0 1-2.47-2.44 7 7 0 0 1-.94-3.65 7 7 0 0 1 .94-3.66 6.57 6.57 0 0 1 2.47-2.44 6.53 6.53 0 0 1 3.22-.85c1.72 0 3.08.54 4.08 1.63v-1.3Zm-16.72 6.19H8.97A1.26 1.26 0 0 0 7.71 13v5.79h4.28V13a1.26 1.26 0 0 0-1.26-1.25ZM16.68 0 9.85 6.8 3.03 0 0 3.03l4.88 4.86a7.05 7.05 0 0 0 9.95 0l4.87-4.86L16.68 0Z"/></svg>
